<svg xmlns="http://www.w3.org/2000/svg" viewBox="0 0 92 30" width="92" height="30">
  <!-- Google wordmark in official colors -->
  <!-- G -->
  <path fill="#4285F4" d="M14.63 15.2h-4.85v1.87h2.73c-.27 1.61-1.65 2.5-2.73 2.5-1.63 0-3.03-1.37-3.03-3.07s1.4-3.07 3.03-3.07c.73 0 1.38.27 1.88.7l1.35-1.37a5.12 5.12 0 0 0-3.23-1.13c-2.84 0-5.13 2.4-5.13 4.87s2.29 4.87 5.13 4.87c2.63 0 4.97-1.93 4.97-4.87 0-.33-.07-.97-.12-1.3z"/>
  <path fill="#EA4335" d="M5 13.7a5.13 5.13 0 0 1 3.23-1.14c1.2 0 2.27.43 3.1 1.13l1.34-1.37A7.1 7.1 0 0 0 8.23 11c-2.17 0-4.1 1-5.35 2.57L5 13.7z"/>
  <path fill="#FBBC05" d="M2.88 16.5a5.18 5.18 0 0 0 2.12 4.3l1.5-1.47a3.1 3.1 0 0 1-.97-2.83H2.88z"/>
  <path fill="#34A853" d="M8.23 21.5c1.47 0 2.8-.5 3.83-1.37l-1.47-1.4a3.1 3.1 0 0 1-1.7.7c-1.4 0-2.6-.93-3.03-2.23L4.37 18.7A5.13 5.13 0 0 0 8.23 21.5z"/>

  <!-- "oogle" in Google colors -->
  <text y="21" font-family="Arial, sans-serif" font-size="14" font-weight="400" letter-spacing="0.2">
    <tspan x="20" fill="#4285F4">G</tspan><tspan fill="#EA4335">o</tspan><tspan fill="#FBBC05">o</tspan><tspan fill="#4285F4">g</tspan><tspan fill="#34A853">l</tspan><tspan fill="#EA4335">e</tspan>
  </text>
</svg>
