<?xml version="1.0" encoding="UTF-8"?> <svg xmlns="http://www.w3.org/2000/svg" xmlns:xlink="http://www.w3.org/1999/xlink" width="500" zoomAndPan="magnify" viewBox="0 0 375 374.999991" height="500" preserveAspectRatio="xMidYMid meet"> <defs> <g></g> </defs> <rect x="-37.5" width="450" fill="#ffffff" y="-37.499999" height="449.999989" fill-opacity="1"></rect> <rect x="-37.5" width="450" fill="#ffffff" y="-37.499999" height="449.999989" fill-opacity="1"></rect> <rect x="-37.5" width="450" fill="#000000" y="-37.499999" height="449.999989" fill-opacity="1"></rect> <g fill="#e4c97e" fill-opacity="1"> <g transform="translate(60.421876, 166.549969)"> <g> <path d="M 3.261719 0 L 21.851562 0 C 28.125 0 31.996094 -1.855469 31.996094 -6.398438 C 31.996094 -9.664062 29.433594 -12.03125 24.859375 -12.476562 L 24.859375 -12.511719 C 28.957031 -12.957031 30.8125 -15.261719 30.8125 -18.109375 C 30.8125 -22.042969 27.546875 -23.773438 21.882812 -23.773438 L 3.261719 -23.773438 Z M 9.375 -4.480469 L 9.375 -10.238281 L 20.222656 -10.238281 C 23.804688 -10.238281 25.660156 -9.34375 25.660156 -7.292969 C 25.660156 -5.121094 23.898438 -4.480469 20.957031 -4.480469 Z M 9.375 -14.078125 L 9.375 -19.324219 L 21.179688 -19.324219 C 24.316406 -19.324219 25.019531 -18.109375 25.019531 -16.734375 C 25.019531 -15.003906 23.644531 -14.078125 20.414062 -14.078125 Z M 9.375 -14.078125 "></path> </g> </g> </g> <g fill="#e4c97e" fill-opacity="1"> <g transform="translate(93.693694, 166.549969)"> <g> <path d="M 3.261719 0 L 28.476562 0 L 28.476562 -4.449219 L 9.375 -4.449219 L 9.375 -10.175781 L 26.875 -10.175781 L 26.875 -14.269531 L 9.375 -14.269531 L 9.375 -19.324219 L 28.21875 -19.324219 L 28.21875 -23.773438 L 3.261719 -23.773438 Z M 3.261719 0 "></path> </g> </g> </g> <g fill="#e4c97e" fill-opacity="1"> <g transform="translate(123.382402, 166.549969)"> <g> <path d="M 15.453125 0.574219 C 24.058594 0.574219 28.796875 -1.792969 28.796875 -6.847656 C 28.796875 -10.140625 27.355469 -13.023438 15.101562 -14.238281 C 9.023438 -14.8125 8.445312 -15.933594 8.445312 -17.277344 C 8.445312 -18.8125 10.078125 -20.027344 15.003906 -20.027344 C 20.476562 -20.027344 22.171875 -18.078125 22.492188 -15.933594 L 28.1875 -15.933594 C 27.707031 -20.765625 23.867188 -24.285156 14.75 -24.285156 C 5.472656 -24.285156 2.273438 -20.988281 2.273438 -17.40625 C 2.273438 -13.726562 4.160156 -10.941406 14.527344 -9.886719 C 21.882812 -9.152344 22.652344 -8.382812 22.652344 -6.6875 C 22.652344 -4.703125 20.507812 -3.679688 15.453125 -3.679688 C 9.246094 -3.679688 7.390625 -5.503906 7.230469 -7.871094 L 1.28125 -7.871094 C 1.535156 -3.359375 5.566406 0.574219 15.453125 0.574219 Z M 15.453125 0.574219 "></path> </g> </g> </g> <g fill="#e4c97e" fill-opacity="1"> <g transform="translate(153.455013, 166.549969)"> <g> <path d="M 11.390625 0 L 17.5 0 L 17.5 -19.324219 L 28.667969 -19.324219 L 28.667969 -23.773438 L 0.222656 -23.773438 L 0.222656 -19.324219 L 11.390625 -19.324219 Z M 11.390625 0 "></path> </g> </g> </g> <g fill="#e4c97e" fill-opacity="1"> <g transform="translate(182.343915, 166.549969)"> <g> <path d="M 0.257812 0 L 7.007812 0 L 9.566406 -5.246094 L 23.964844 -5.246094 L 26.492188 0 L 33.308594 0 L 20.796875 -23.773438 L 12.671875 -23.773438 Z M 11.519531 -9.308594 L 16.507812 -19.550781 L 16.734375 -20.09375 L 16.796875 -20.09375 L 17.054688 -19.550781 L 22.011719 -9.308594 Z M 11.519531 -9.308594 "></path> </g> </g> </g> <g fill="#e4c97e" fill-opacity="1"> <g transform="translate(215.871668, 166.549969)"> <g> <path d="M 16.925781 0.574219 C 27.515625 0.574219 31.546875 -3.488281 31.546875 -11.039062 L 31.546875 -23.773438 L 25.402344 -23.773438 L 25.402344 -11.101562 C 25.402344 -6.207031 22.523438 -3.777344 16.957031 -3.777344 C 11.359375 -3.777344 8.480469 -6.207031 8.480469 -11.132812 L 8.480469 -23.773438 L 2.335938 -23.773438 L 2.335938 -11.070312 C 2.335938 -3.421875 6.496094 0.574219 16.925781 0.574219 Z M 16.925781 0.574219 "></path> </g> </g> </g> <g fill="#e4c97e" fill-opacity="1"> <g transform="translate(249.751339, 166.549969)"> <g> <path d="M 11.390625 0 L 17.5 0 L 17.5 -19.324219 L 28.667969 -19.324219 L 28.667969 -23.773438 L 0.222656 -23.773438 L 0.222656 -19.324219 L 11.390625 -19.324219 Z M 11.390625 0 "></path> </g> </g> </g> <g fill="#e4c97e" fill-opacity="1"> <g transform="translate(278.64023, 166.549969)"> <g> <path d="M 17.980469 0.574219 C 28.285156 0.574219 34.683594 -3.871094 34.683594 -11.871094 C 34.683594 -19.867188 28.285156 -24.285156 17.980469 -24.285156 C 7.648438 -24.285156 1.246094 -19.867188 1.246094 -11.871094 C 1.246094 -3.871094 7.648438 0.574219 17.980469 0.574219 Z M 7.421875 -11.871094 C 7.421875 -17.117188 11.710938 -19.964844 17.980469 -19.964844 C 24.21875 -19.964844 28.507812 -16.988281 28.507812 -11.871094 C 28.507812 -6.78125 24.21875 -3.777344 17.980469 -3.777344 C 11.710938 -3.777344 7.421875 -6.65625 7.421875 -11.871094 Z M 7.421875 -11.871094 "></path> </g> </g> </g> <g fill="#e4c97e" fill-opacity="1"> <g transform="translate(101.296873, 192.749987)"> <g> <path d="M 1.53125 0 L 8.953125 0 C 13.980469 0 16.066406 -2.640625 16.066406 -5.566406 C 16.066406 -8.625 13.785156 -11.144531 8.953125 -11.144531 L 1.53125 -11.144531 Z M 4.394531 -2.085938 L 4.394531 -9.058594 L 8.429688 -9.058594 C 11.414062 -9.058594 13.171875 -7.921875 13.171875 -5.566406 C 13.171875 -3.136719 11.296875 -2.085938 8.429688 -2.085938 Z M 4.394531 -2.085938 "></path> </g> </g> </g> <g fill="#e4c97e" fill-opacity="1"> <g transform="translate(117.946858, 192.749987)"> <g></g> </g> </g> <g fill="#e4c97e" fill-opacity="1"> <g transform="translate(124.71185, 192.749987)"> <g> <path d="M 1.53125 0 L 13.351562 0 L 13.351562 -2.085938 L 4.394531 -2.085938 L 4.394531 -4.769531 L 12.601562 -4.769531 L 12.601562 -6.691406 L 4.394531 -6.691406 L 4.394531 -9.058594 L 13.230469 -9.058594 L 13.230469 -11.144531 L 1.53125 -11.144531 Z M 1.53125 0 "></path> </g> </g> </g> <g fill="#e4c97e" fill-opacity="1"> <g transform="translate(138.631835, 192.749987)"> <g></g> </g> </g> <g fill="#e4c97e" fill-opacity="1"> <g transform="translate(145.396826, 192.749987)"> <g> <path d="M 5.339844 0 L 8.203125 0 L 8.203125 -9.058594 L 13.441406 -9.058594 L 13.441406 -11.144531 L 0.105469 -11.144531 L 0.105469 -9.058594 L 5.339844 -9.058594 Z M 5.339844 0 "></path> </g> </g> </g> <g fill="#e4c97e" fill-opacity="1"> <g transform="translate(158.941812, 192.749987)"> <g></g> </g> </g> <g fill="#e4c97e" fill-opacity="1"> <g transform="translate(165.706803, 192.749987)"> <g> <path d="M 0.121094 0 L 3.285156 0 L 4.484375 -2.460938 L 11.234375 -2.460938 L 12.421875 0 L 15.613281 0 L 9.75 -11.144531 L 5.941406 -11.144531 Z M 5.398438 -4.363281 L 7.738281 -9.164062 L 7.84375 -9.421875 L 7.875 -9.421875 L 7.996094 -9.164062 L 10.320312 -4.363281 Z M 5.398438 -4.363281 "></path> </g> </g> </g> <g fill="#e4c97e" fill-opacity="1"> <g transform="translate(181.426784, 192.749987)"> <g></g> </g> </g> <g fill="#e4c97e" fill-opacity="1"> <g transform="translate(188.191776, 192.749987)"> <g> <path d="M 1.53125 0 L 4.394531 0 L 4.394531 -11.144531 L 1.53125 -11.144531 Z M 1.53125 0 "></path> </g> </g> </g> <g fill="#e4c97e" fill-opacity="1"> <g transform="translate(194.101767, 192.749987)"> <g></g> </g> </g> <g fill="#e4c97e" fill-opacity="1"> <g transform="translate(200.866759, 192.749987)"> <g> <path d="M 1.53125 0 L 12.253906 0 L 12.253906 -2.085938 L 4.394531 -2.085938 L 4.394531 -11.144531 L 1.53125 -11.144531 Z M 1.53125 0 "></path> </g> </g> </g> <g fill="#e4c97e" fill-opacity="1"> <g transform="translate(213.616747, 192.749987)"> <g></g> </g> </g> <g fill="#e4c97e" fill-opacity="1"> <g transform="translate(220.381738, 192.749987)"> <g> <path d="M 1.53125 0 L 4.394531 0 L 4.394531 -11.144531 L 1.53125 -11.144531 Z M 1.53125 0 "></path> </g> </g> </g> <g fill="#e4c97e" fill-opacity="1"> <g transform="translate(226.29173, 192.749987)"> <g></g> </g> </g> <g fill="#e4c97e" fill-opacity="1"> <g transform="translate(233.056721, 192.749987)"> <g> <path d="M 1.53125 0 L 4.246094 0 L 4.246094 -8.039062 L 4.320312 -7.964844 L 12.886719 0 L 15.914062 0 L 15.914062 -11.144531 L 13.183594 -11.144531 L 13.183594 -3.074219 L 13.09375 -3.179688 L 4.558594 -11.144531 L 1.53125 -11.144531 Z M 1.53125 0 "></path> </g> </g> </g> <g fill="#e4c97e" fill-opacity="1"> <g transform="translate(250.486701, 192.749987)"> <g></g> </g> </g> <g fill="#e4c97e" fill-opacity="1"> <g transform="translate(257.251693, 192.749987)"> <g> <path d="M 8.386719 0.269531 C 12.585938 0.269531 15.796875 -1.695312 15.796875 -5.609375 L 15.796875 -5.910156 L 7.648438 -5.910156 L 7.648438 -4.214844 L 13.125 -4.214844 L 13.109375 -4.183594 C 12.613281 -2.578125 10.441406 -1.785156 8.386719 -1.785156 C 5.488281 -1.785156 3.480469 -3.121094 3.480469 -5.503906 L 3.480469 -5.578125 C 3.480469 -8.054688 5.476562 -9.375 8.371094 -9.375 C 10.648438 -9.375 12.691406 -8.324219 12.976562 -6.976562 L 12.976562 -6.929688 L 15.796875 -6.929688 L 15.796875 -6.976562 C 15.613281 -9.511719 12.328125 -11.386719 8.386719 -11.386719 C 3.675781 -11.386719 0.585938 -9.300781 0.585938 -5.566406 L 0.585938 -5.488281 C 0.585938 -1.785156 3.703125 0.269531 8.386719 0.269531 Z M 8.386719 0.269531 "></path> </g> </g> </g> </svg> 